<?xml version="1.0" encoding="UTF-8"?>
<svg width="128px" height="128px" fill="#000000" version="1.1" viewBox="0 0 32 32" xmlns="http://www.w3.org/2000/svg" xmlns:cc="http://creativecommons.org/ns#" xmlns:dc="http://purl.org/dc/elements/1.1/" xmlns:rdf="http://www.w3.org/1999/02/22-rdf-syntax-ns#">
<metadata>
<rdf:RDF>
<cc:Work rdf:about="">
<dc:format>image/svg+xml</dc:format>
<dc:type rdf:resource="http://purl.org/dc/dcmitype/StillImage"/>
<dc:title/>
</cc:Work>
</rdf:RDF>
</metadata>
<path d="m28.961 9.2575c-2.3854-4.6383-7.2888-7.8189-12.855-7.8189-6.2286 0-11.397 3.8432-13.517 9.2766m0.53009 11.927c2.3854 4.6383 7.2888 7.9514 12.987 7.9514 6.2286 0 11.397-3.8432 13.517-9.2767" fill="none" stroke="#000" stroke-miterlimit="10" stroke-width="2.6505"/>
<path d="m29.359 1.4386v7.9514h-7.9514m-18.553 21.204v-7.9514h7.9514" fill="none" stroke="#000" stroke-miterlimit="10" stroke-width="2.6505"/>
<path d="m2.5725 10.682c-0.61109-0.24142-1.1238-0.45168-1.1394-0.46724-0.046252-0.046251 0.42157-1.0952 0.78975-1.7707 2.2847-4.192 6.1703-7.0775 10.758-7.9889 1.2098-0.24034 1.6628-0.27998 3.1757-0.27794 1.4902 0.002019 1.972 0.047933 3.1871 0.30383 3.0962 0.65201 6.0007 2.2715 8.1781 4.5598l0.53381 0.56103v-4.1544h2.5943v9.2299h-9.2299v-2.5935l5.2821-0.025821-0.35855-0.44778c-2.0147-2.5161-5.0487-4.2349-8.3661-4.7396-1.1431-0.17391-2.8496-0.15165-4.0911 0.053349-4.3011 0.71024-8.0149 3.5895-9.8074 7.6037-0.14091 0.31556-0.28751 0.57812-0.32578 0.58346-0.038271 0.005352-0.56957-0.18781-1.1807-0.42923z" fill="#3f72af" stroke-width=".049891"/>
<path d="m14.619 31.829c-2.9171-0.30231-5.6863-1.3803-7.9915-3.1108-0.74898-0.56226-0.93822-0.72813-1.7587-1.5414l-0.71095-0.70475v4.1124h-2.5943v-9.2299h9.2299v2.5943h-2.6442c-1.4543 0-2.6442 0.01436-2.6442 0.0319 0 0.17008 1.6036 1.8346 2.295 2.3821 1.8991 1.504 4.0244 2.4242 6.4859 2.808 0.77917 0.12151 2.8677 0.12212 3.6573 9.91e-4 2.6267-0.40269 4.8422-1.4078 6.7796-3.0756 1.4212-1.2235 2.7323-2.9955 3.4366-4.645 0.11907-0.27886 0.24114-0.51647 0.27126-0.52803 0.0508-0.01949 2.2871 0.83134 2.3498 0.89401 0.04603 0.04603-0.42147 1.0946-0.79107 1.7742-1.3642 2.5087-3.3845 4.6267-5.8 6.0805-1.727 1.0394-3.7029 1.7373-5.8373 2.0618-0.79481 0.12082-2.954 0.17582-3.733 0.0951z" fill="#3f72af" stroke-width=".049891"/>
<path d="m25.333 19.564v-0.68398h1.8v-4.5359h-1.8v-1.296l0.41399-4.04e-4c0.22769-2.22e-4 0.54285-0.03616 0.70036-0.0799 0.36601-0.10162 0.8296-0.55492 0.8296-0.8112v-0.18846h1.8v6.9118h1.728v1.368h-5.4718z" fill="#3f72af" stroke-width=".071998"/>
<path d="m18.061 19.564v-0.68398h1.728v-4.5359h-1.728v-1.296h0.38292c0.8232 0 1.4079-0.33067 1.5246-0.86225l0.04782-0.21772h1.7165v6.9118h1.728v1.368h-5.3998z" fill="#3f72af" stroke-width=".071998"/>
<path d="m10.285 16.103v-4.1457l2.0699 0.02801c2.3494 0.03176 2.6787 0.09192 3.3649 0.61458 1.1979 0.91244 1.1631 3.167-0.06374 4.1368-0.73344 0.57975-1.378 0.77328-2.5811 0.77493l-0.77398 0.0011v2.7359h-2.016zm3.6026-0.26422c0.58452-0.29476 0.81575-1.0963 0.50277-1.7428-0.21916-0.45272-0.48184-0.56998-1.3515-0.60324l-0.73798-0.02823v2.5363h0.63273c0.51298 0 0.69352-0.03067 0.95397-0.16199z" fill="#3f72af" stroke-width=".071998"/>
<path d="m1.9067 19.618c0.22322-0.34649 0.81351-1.2618 1.3117-2.0339 0.49823-0.77218 0.9055-1.4526 0.90504-1.512-4.609e-4 -0.0594-0.55816-0.99327-1.2393-2.0753-0.68117-1.082-1.2385-1.9811-1.2385-1.9979 0-0.01687 0.51441-0.03069 1.1431-0.03069h1.1431l0.74682 1.2582c0.41075 0.69198 0.76302 1.2585 0.78282 1.259 0.019799 4.56e-4 0.37805-0.55761 0.79612-1.2401l0.76012-1.241 1.0938-0.01989c0.6016-0.01082 1.0938-0.0025 1.0938 0.01898 0 0.02139-0.56772 0.92032-1.2616 1.9977-0.69388 1.0773-1.247 1.9968-1.2292 2.0432 0.026842 0.06996 1.4784 2.386 2.3978 3.8258l0.24137 0.37799-2.3444-0.004982-0.79198-1.3288c-0.43559-0.73066-0.80921-1.3289-0.83028-1.3294-0.021068-4.24e-4 -0.40447 0.59862-0.85201 1.3312l-0.8137 1.3319h-2.2207z" fill="#3f72af" stroke-width=".071998"/>
</svg>
