<?xml version="1.0" encoding="UTF-8" standalone="no"?>
<svg
   xmlns:dc="http://purl.org/dc/elements/1.1/"
   xmlns:cc="http://creativecommons.org/ns#"
   xmlns:rdf="http://www.w3.org/1999/02/22-rdf-syntax-ns#"
   xmlns:svg="http://www.w3.org/2000/svg"
   xmlns="http://www.w3.org/2000/svg"
   xmlns:sodipodi="http://sodipodi.sourceforge.net/DTD/sodipodi-0.dtd"
   xmlns:inkscape="http://www.inkscape.org/namespaces/inkscape"
   width="14"
   height="16"
   viewBox="0 0 14 16"
   version="1.1"
   id="svg3757"
   sodipodi:docname="update_version.svg"
   inkscape:version="0.92.4 (5da689c313, 2019-01-14)">
  <metadata
     id="metadata3763">
    <rdf:RDF>
      <cc:Work
         rdf:about="">
        <dc:format>image/svg+xml</dc:format>
        <dc:type
           rdf:resource="http://purl.org/dc/dcmitype/StillImage" />
        <dc:title></dc:title>
      </cc:Work>
    </rdf:RDF>
  </metadata>
  <defs
     id="defs3761" />
  <sodipodi:namedview
     pagecolor="#ffffff"
     bordercolor="#666666"
     borderopacity="1"
     objecttolerance="10"
     gridtolerance="10"
     guidetolerance="10"
     inkscape:pageopacity="0"
     inkscape:pageshadow="2"
     inkscape:window-width="1920"
     inkscape:window-height="1017"
     id="namedview3759"
     showgrid="false"
     inkscape:zoom="59"
     inkscape:cx="5.4764283"
     inkscape:cy="7.9835412"
     inkscape:window-x="1072"
     inkscape:window-y="527"
     inkscape:window-maximized="1"
     inkscape:current-layer="svg3757" />
  <g
     id="g3775"
     style="fill:#e84545;fill-opacity:1;stroke:none;stroke-opacity:1;stroke-width:0.4;stroke-miterlimit:4;stroke-dasharray:none">
    <path
       id="path3771"
       d="M 8,9 H 6 V 4 h 2 z"
       style="fill:#e84545;fill-opacity:1;stroke:none;stroke-opacity:1;stroke-width:0.4;stroke-miterlimit:4;stroke-dasharray:none" />
    <path
       id="path3769"
       d="M 6,12 H 8 V 10 H 6 Z"
       style="fill:#e84545;fill-opacity:1;stroke:none;stroke-opacity:1;stroke-width:0.4;stroke-miterlimit:4;stroke-dasharray:none" />
  </g>
  <g
     id="g3779"
     style="fill:#3f72af;fill-opacity:1">
    <path
       id="path3767"
       d="M 12.33,10 H 10 l 1.5,1.5 C 10.45,12.83 8.83,13.7 7,13.7 A 5.71,5.71 0 0 1 1.3,8 C 1.3,7.66 1.33,7.33 1.39,7 H 0.08 C 0.03,7.33 0,7.66 0,8 c 0,3.86 3.14,7 7,7 2.19,0 4.13,-1.02 5.41,-2.59 L 14,14 v -4 z"
       style="fill:#3f72af;fill-opacity:1" />
    <path
       id="path3755"
       d="M 1.67,6 H 4 L 2.5,4.5 C 3.55,3.17 5.17,2.3 7,2.3 c 3.14,0 5.7,2.56 5.7,5.7 0,0.34 -0.03,0.67 -0.09,1 h 1.31 C 13.97,8.67 14,8.34 14,8 14,4.14 10.86,1 7,1 4.81,1 2.87,2.02 1.59,3.59 L 0,2 v 4 z"
       style="fill:#3f72af;fill-opacity:1" />
  </g>
</svg>
