<?xml version="1.0" encoding="UTF-8" standalone="no"?>
<svg
   xmlns:dc="http://purl.org/dc/elements/1.1/"
   xmlns:cc="http://creativecommons.org/ns#"
   xmlns:rdf="http://www.w3.org/1999/02/22-rdf-syntax-ns#"
   xmlns:svg="http://www.w3.org/2000/svg"
   xmlns="http://www.w3.org/2000/svg"
   xmlns:sodipodi="http://sodipodi.sourceforge.net/DTD/sodipodi-0.dtd"
   xmlns:inkscape="http://www.inkscape.org/namespaces/inkscape"
   inkscape:export-ydpi="36"
   inkscape:export-xdpi="36"
   inkscape:export-filename="C:\Users\super\Desktop\addon2_icon48.png"
   fill="#000000"
   viewBox="0 0 32 32"
   width="128px"
   height="128px"
   version="1.1"
   id="svg1536"
   sodipodi:docname="addon_icon.svg"
   inkscape:version="1.0 (4035a4fb49, 2020-05-01)">
  <metadata
     id="metadata1542">
    <rdf:RDF>
      <cc:Work
         rdf:about="">
        <dc:format>image/svg+xml</dc:format>
        <dc:type
           rdf:resource="http://purl.org/dc/dcmitype/StillImage" />
        <dc:title></dc:title>
      </cc:Work>
    </rdf:RDF>
  </metadata>
  <defs
     id="defs1540">
    <rect
       x="6.7011765"
       y="12.272941"
       width="18.522353"
       height="7.3788235"
       id="rect1546" />
  </defs>
  <sodipodi:namedview
     inkscape:document-rotation="0"
     pagecolor="#ffffff"
     bordercolor="#666666"
     borderopacity="1"
     objecttolerance="10"
     gridtolerance="10"
     guidetolerance="10"
     inkscape:pageopacity="0"
     inkscape:pageshadow="2"
     inkscape:window-width="1920"
     inkscape:window-height="1017"
     id="namedview1538"
     showgrid="false"
     inkscape:zoom="4.695631"
     inkscape:cx="39.902526"
     inkscape:cy="76.911768"
     inkscape:window-x="1912"
     inkscape:window-y="-8"
     inkscape:window-maximized="1"
     inkscape:current-layer="svg1536" />
  <path
     fill="none"
     stroke="#000000"
     stroke-miterlimit="10"
     stroke-width="2.65047"
     d="M 28.961269,9.2575346 C 26.575845,4.6192096 21.672472,1.4386439 16.106481,1.4386439 c -6.2286075,0 -11.3970265,3.8431835 -13.5174036,9.2766491 m 0.5300942,11.927123 c 2.3854242,4.638324 7.2887964,7.951414 12.9873094,7.951414 6.22861,0 11.397029,-3.843184 13.517405,-9.276651"
     id="path1532" />
  <path
     fill="none"
     stroke="#000000"
     stroke-miterlimit="10"
     stroke-width="2.65047"
     d="m 29.358839,1.4386439 v 7.951414 H 21.407426 M 2.8541245,30.59383 v -7.951414 h 7.9514145"
     id="path1534" />
  <path
     style="fill:#3f72af;stroke-width:0.0498911"
     d="M 2.5724881,10.682426 C 1.9613951,10.44101 1.448672,10.23075 1.4331032,10.215181 1.3868517,10.16893 1.8546735,9.1200144 2.2228578,8.4444523 4.5075399,4.2524065 8.3931206,1.3669331 12.980659,0.45559435 c 1.20981,-0.24033518 1.662772,-0.27997861 3.175714,-0.27793911 1.490207,0.002019 1.971951,0.0479333 3.187146,0.30383122 3.09623,0.65200794 6.000709,2.27145164 8.178099,4.55984554 L 28.05543,5.6023591 V 3.5251788 1.4479983 h 1.297175 1.29717 V 6.0629369 10.677876 H 26.034836 21.419898 V 9.3811401 8.0844056 l 2.641072,-0.01291 2.64107,-0.012911 -0.358548,-0.4477777 C 24.328809,5.0947349 21.294814,3.3758936 17.977403,2.8711889 16.834314,2.6972811 15.127792,2.7195348 13.886322,2.9245376 9.5851846,3.6347804 5.8713857,6.5140872 4.0789332,10.528203 3.9380228,10.843764 3.7914203,11.106319 3.7531495,11.111658 3.7148788,11.11701 3.183581,10.923844 2.5724881,10.682426 Z"
     id="path2111" />
  <path
     style="fill:#3f72af;stroke-width:0.0498911"
     d="M 14.618609,31.829009 C 11.701515,31.526699 8.932302,30.448756 6.6271484,28.718256 5.8781722,28.155993 5.6889331,27.99013 4.8684828,27.176832 L 4.1575329,26.47208 v 2.056197 2.056196 H 2.8603611 1.5631889 v -4.614936 -4.614939 h 4.6149384 4.6149387 v 1.297172 1.297172 H 8.1488303 c -1.4543288,0 -2.6442345,0.01436 -2.6442345,0.0319 0,0.170077 1.6036068,1.834562 2.2949967,2.382121 1.8991234,1.504048 4.0243725,2.424165 6.4858595,2.808022 0.779173,0.121512 2.867676,0.122118 3.657286,9.91e-4 2.626664,-0.402689 4.842205,-1.40779 6.779615,-3.075637 1.421233,-1.223489 2.732253,-2.995504 3.436575,-4.644982 0.119073,-0.278859 0.241139,-0.516472 0.271262,-0.528032 0.0508,-0.01949 2.287118,0.831342 2.349786,0.894008 0.04603,0.04603 -0.421468,1.094551 -0.791066,1.774203 -1.364248,2.508728 -3.384493,4.626665 -5.800049,6.080524 -1.726972,1.039419 -3.702873,1.737325 -5.837273,2.061779 -0.79481,0.120818 -2.954005,0.175825 -3.732979,0.0951 z"
     id="path2113" />
  <path
     style="fill:#3f72af;stroke-width:0.0719978"
     d="m 25.33308,19.564319 v -0.683981 h 0.899976 0.899974 V 16.612401 14.344463 H 26.233056 25.33308 V 13.69648 13.048498 l 0.413989,-4.04e-4 c 0.227693,-2.22e-4 0.542853,-0.03616 0.700356,-0.0799 0.366007,-0.101623 0.829602,-0.554923 0.829602,-0.8112 V 11.96853 h 0.899975 0.899975 v 3.455906 3.455905 h 0.863976 0.863976 v 0.68398 0.683982 H 28.069005 25.33308 Z"
     id="path2115" />
  <path
     style="fill:#3f72af;stroke-width:0.0719978"
     d="m 18.06128,19.564319 v -0.683981 h 0.863975 0.863978 V 16.612401 14.344463 H 18.925255 18.06128 V 13.69648 13.048498 h 0.382919 c 0.823203,0 1.407894,-0.330667 1.52465,-0.86225 l 0.04782,-0.21772 h 0.858259 0.858254 v 3.455905 3.455905 h 0.863976 0.863975 v 0.683981 0.683982 h -2.699925 -2.699925 z"
     id="path2117" />
  <path
     style="fill:#3f72af;stroke-width:0.0719978"
     d="m 10.285493,16.102636 v -4.145667 l 2.069943,0.02801 c 2.349383,0.03176 2.678674,0.09192 3.364851,0.614582 1.197882,0.91244 1.163141,3.16704 -0.06374,4.136835 -0.733437,0.579749 -1.378038,0.773277 -2.581126,0.774932 l -0.773976,0.0011 v 1.367963 1.367962 h -1.007978 -1.007974 z m 3.602646,-0.264216 c 0.584519,-0.294755 0.815747,-1.096271 0.502773,-1.742791 -0.219163,-0.452725 -0.481842,-0.569976 -1.351495,-0.603242 l -0.737978,-0.02823 v 1.268131 1.268131 h 0.632726 c 0.512978,0 0.693525,-0.03067 0.953974,-0.161991 z"
     id="path2119" />
  <path
     style="fill:#3f72af;stroke-width:0.0719978"
     d="m 1.9067461,19.618317 c 0.2232238,-0.34649 0.8135076,-1.261766 1.3117427,-2.033944 0.4982348,-0.77218 0.9055041,-1.452559 0.905045,-1.511959 -4.609e-4,-0.0594 -0.5581557,-0.993266 -1.2393211,-2.075262 -0.681166,-1.081996 -1.2384833,-1.981072 -1.2384833,-1.997946 0,-0.01687 0.5144068,-0.03069 1.1431267,-0.03069 H 3.931983 l 0.7468206,1.25815 c 0.4107524,0.691979 0.763021,1.258516 0.7828212,1.258964 0.019799,4.56e-4 0.3780537,-0.557613 0.7961202,-1.240148 l 0.7601209,-1.240964 1.0938287,-0.01989 c 0.601605,-0.01082 1.0938278,-0.0025 1.0938278,0.01898 0,0.02139 -0.5677156,0.920318 -1.261591,1.997658 -0.6938753,1.077342 -1.2470143,1.996793 -1.2291947,2.043226 0.026842,0.06996 1.4784489,2.386022 2.3978335,3.825795 L 9.3539436,20.24828 8.1817623,20.245789 7.009582,20.243298 6.2176029,18.914489 C 5.7820156,18.183824 5.4083897,17.585554 5.387322,17.585132 5.3662543,17.584708 4.9828519,18.183749 4.5353149,18.916327 L 3.7216132,20.248269 H 2.6112492 1.5008851 Z"
     id="path2121" />
</svg>
