<?xml version="1.0" encoding="UTF-8"?>
<svg version="1.1" viewBox="0 0 14 16"
  xmlns="http://www.w3.org/2000/svg">
  <g fill="#e84545">
    <path d="m8 9h-2v-5h2z"/>
    <path d="m6 12h2v-2h-2z"/>
  </g>
  <g fill="#3f72af">
    <path d="m12.33 10h-2.33l1.5 1.5c-1.05 1.33-2.67 2.2-4.5 2.2a5.71 5.71 0 0 1-5.7-5.7c0-0.34 0.03-0.67 0.09-1h-1.31c-0.05 0.33-0.08 0.66-0.08 1 0 3.86 3.14 7 7 7 2.19 0 4.13-1.02 5.41-2.59l1.59 1.59v-4z"/>
    <path d="m1.67 6h2.33l-1.5-1.5c1.05-1.33 2.67-2.2 4.5-2.2 3.14 0 5.7 2.56 5.7 5.7 0 0.34-0.03 0.67-0.09 1h1.31c0.05-0.33 0.08-0.66 0.08-1 0-3.86-3.14-7-7-7-2.19 0-4.13 1.02-5.41 2.59l-1.59-1.59v4z"/>
  </g>
</svg>
